<?xml version="1.0" encoding="UTF-8"?>
<svg id="Layer_1" data-name="Layer 1" xmlns="http://www.w3.org/2000/svg" viewBox="0 0 1500 600">
  <defs>
    <style>
      .cls-1, .cls-2 {
        fill: #fff;
      }

      .cls-3 {
        fill: #5f1dff;
      }

      .cls-4 {
        letter-spacing: .5em;
      }

      .cls-5 {
        letter-spacing: .48em;
      }

      .cls-6 {
        letter-spacing: .49em;
      }

      .cls-2 {
        font-family: AktivGroteskEx-XBold, 'Aktiv Grotesk Ex';
        font-size: 5.11px;
        font-weight: 700;
      }

      .cls-7 {
        letter-spacing: .48em;
      }
    </style>
  </defs>
  <rect class="cls-3" width="1500" height="600"/>
  <g>
    <path class="cls-1" d="m782.95,233.23c.32.98.5,2,.74,3,.16-.31.24-.63.3-.95.3-1.61.69-3.19,1.59-4.57.29-.44.22-.72-.08-1.09-.57-.72-1.1-1.48-1.65-2.22h-.26c-.56.76-1.11,1.52-1.69,2.27-.26.33-.29.59-.08.99.43.83.84,1.69,1.13,2.57Z"/>
    <path class="cls-1" d="m784.58,239c-.86-.34-1.67-.2-2.35.42-.16.15-.27.48-.24.71.17,1.4.36,2.8.59,4.19.05.3.22.65.45.82.56.42,1.19.75,1.85,1.15,0-.26,0-.5,0-.73-.03-1.68,0-3.35.46-4.99.25-.89.09-1.23-.76-1.57Z"/>
    <path class="cls-1" d="m793.84,237.02c.13-.03.31-.21.33-.34.12-.74.19-1.48.29-2.33-.85.1-1.6.16-2.34.3-.16.03-.3.32-.39.51-.32.71-.57,1.44-.91,2.14-.28.56-.65,1.06-1.08,1.74.25-.12.34-.15.4-.2,1.14-.79,2.31-1.52,3.69-1.82Z"/>
    <path class="cls-1" d="m773.81,237.1c.75.26,1.49.58,2.2.93.53.26,1.01.62,1.65,1.02-.1-.22-.13-.3-.17-.36-.79-1.17-1.54-2.35-1.85-3.76-.03-.14-.26-.3-.42-.32-.7-.11-1.41-.17-2.24-.26.09.76.18,1.4.23,2.04.03.41.22.58.6.71Z"/>
    <path class="cls-1" d="m784.69,249.06c.3-1.92-.32-2.92-2.15-3.41,0,.42-.04.83.01,1.23.04.32.11.72.32.9.56.48,1.21.86,1.82,1.28Z"/>
    <path class="cls-1" d="m782.85,250.44c.66.5,1.34.98,1.98,1.44.17-1.64-.51-2.78-2.16-3.44,0,.58,0,1.13,0,1.68,0,.11.08.25.16.32Z"/>
    <path class="cls-1" d="m805.31,326.06l-7.93-18.72-7.79-1.67c0-14.8,0-29.59-.01-44.39v-.31h1.02c1.35,0,2.6,0,3.85-.01.21,0,.56-.08.61-.21.17-.5.3-1.03.34-1.55.03-.36-.22-.55-.6-.38-1.78.79-3.68.76-5.58.81-.94.02-1.5-.35-2-1.03-1-1.37-1.55-2.92-1.96-4.55-.35-1.41-1.36-2.28-2.58-3.07-.18,1.08-.31,2.09-.53,3.07-.42,1.9-1.07,3.7-2.47,5.13-.2.21-.55.38-.83.39-2.11.05-4.23.14-6.23-.74-.13-.06-.56.18-.56.25.06.57.11,1.16.34,1.67.08.18.64.2.99.21.93.03,3.45.05,3.45.05h1.05s0,.16,0,.16c0,4.05.01,8.1,0,12.14,0,.72-.02,1.38.63,1.76.02.01.02.08.03.15-.23.32-.68.36-.68,1.03.02,11.09.02,22.19.02,33.28l-11.31,5.05-3.49,16.83-1.6,3.37v3.18l29.99-.02,15.59-.11-1.76-11.77Zm-10.13-13.21l-13.21,11.21,1.13-4.13,12.08-7.08Zm-6.5-51.46c0,.84,0,1.53,0,2.21,0,7.48,0,14.96,0,22.45,0,6.6,0,13.2-.01,19.8l-4.48,2.9c0-13.45,0-26.9,0-40.35,0-.61.15-1.07.49-1.53,1.2-1.62,2.38-3.27,3.56-4.91.11-.15.23-.3.44-.56Zm-3.68-4.89c.61,1.07,1.16,2.04,1.73,3.05h-1.73v-3.05Zm-2.58.02v3.03h-1.72c.57-1,1.13-1.98,1.72-3.03Zm5.37,4.45c-1.37,1.9-2.69,3.73-4.05,5.61-1.35-1.86-2.66-3.69-4.03-5.58l8.08-.03Zm-8.99.28s2.9,4.07,4.13,5.84c.22.31.37.78.37,1.18.01,13.68.01,27.36.02,41.05l-4.49,2.91c0-2.21,0-4.42,0-6.63,0-6.23.01-12.46,0-18.69,0-8.35-.03-16.69-.05-25.04,0-.1.01-.62.01-.62Zm-9.6,54.47l8.69-4.86c0,.65,0,1.3,0,1.96l-6.49,4.2-4.83,7.81,2.63-9.11Zm2.86,14.95l-5.51,4.84,2.89-5.93,32.56-2.22-29.95,3.3Z"/>
    <path class="cls-1" d="m759.16,334.96c-.9-1.01-2-1.68-3.2-2.47-1.62-1.08-3.82-.41-4.57,1.38-.86,2.04.64,4.3,2.86,4.3h4.54c1.08,0,1.75-1.18,1.19-2.11-.25-.41-.52-.77-.82-1.1Z"/>
    <g>
      <text class="cls-2" transform="translate(760.7 370.7)"><tspan class="cls-7" x="0" y="0">S</tspan><tspan class="cls-4" x="6.54" y="0">TU</tspan><tspan class="cls-6" x="20.06" y="0">D</tspan><tspan class="cls-5" x="27.18" y="0">I</tspan><tspan class="cls-4" x="31.57" y="0">OS</tspan></text>
      <g>
        <g>
          <path class="cls-1" d="m761.72,347.81c-.11,1.03-.55,1.82-1.32,2.39-.77.57-1.81.85-3.1.85-.96,0-1.8-.17-2.5-.5-.7-.34-1.25-.83-1.64-1.48-.39-.65-.58-1.42-.58-2.32,0-.85.19-1.6.56-2.25.37-.65.92-1.16,1.62-1.51.71-.36,1.55-.54,2.54-.54,1.19,0,2.13.24,2.84.72.71.48,1.18,1.21,1.42,2.18l-2.41.28c-.15-.44-.37-.75-.66-.95-.29-.2-.69-.29-1.2-.29-.7,0-1.24.21-1.63.63-.39.42-.59,1-.59,1.74s.2,1.33.59,1.74c.39.41.95.62,1.67.62.56,0,1-.11,1.31-.32.32-.21.53-.54.63-.98h2.43Z"/>
          <path class="cls-1" d="m768.93,342.65h2.41v4.62c0,1.28-.34,2.23-1.03,2.85-.69.62-1.74.93-3.17.93s-2.48-.31-3.17-.93c-.69-.62-1.03-1.57-1.03-2.85v-4.62h2.41v4.8c0,.57.14.99.43,1.26.29.27.74.4,1.36.4s1.07-.13,1.36-.4c.29-.27.43-.69.43-1.26v-4.8Z"/>
          <polygon class="cls-1" points="775.38 350.84 775.38 344.62 772.33 344.62 772.33 342.65 780.84 342.65 780.84 344.62 777.79 344.62 777.79 350.84 775.38 350.84"/>
          <polygon class="cls-1" points="784.51 350.84 784.51 344.62 781.46 344.62 781.46 342.65 789.97 342.65 789.97 344.62 786.92 344.62 786.92 350.84 784.51 350.84"/>
          <rect class="cls-1" x="791.05" y="342.65" width="2.41" height="8.19"/>
          <polygon class="cls-1" points="801.79 350.84 797.64 345.86 797.64 350.84 795.34 350.84 795.34 342.65 797.48 342.65 801.63 347.63 801.63 342.65 803.93 342.65 803.93 350.84 801.79 350.84"/>
          <path class="cls-1" d="m812.23,347.96h-1.89v-1.8h4.11v3.78c-.55.37-1.17.64-1.87.83-.7.19-1.43.28-2.2.28-1.62,0-2.88-.37-3.77-1.11-.89-.74-1.34-1.79-1.34-3.14,0-.88.19-1.65.57-2.3.38-.65.93-1.16,1.66-1.51.73-.36,1.59-.53,2.6-.53,1.14,0,2.07.23,2.8.69.73.46,1.2,1.11,1.41,1.95l-2.41.24c-.14-.35-.35-.6-.65-.76-.29-.15-.7-.23-1.21-.23-.76,0-1.33.2-1.73.61-.39.41-.59,1-.59,1.78,0,.82.21,1.43.64,1.82.43.4,1.09.6,1.99.6.72,0,1.35-.1,1.88-.31v-.88Z"/>
        </g>
        <g>
          <path class="cls-1" d="m760.4,355.67c-.17-.43-.44-.73-.79-.92-.36-.19-.84-.28-1.46-.28-.7,0-1.23.08-1.59.23-.36.15-.54.38-.54.67,0,.27.1.48.29.61.19.13.57.24,1.13.33l2.34.38c1.41.22,2.43.6,3.05,1.13.62.53.94,1.28.94,2.23,0,1.15-.46,2.01-1.39,2.6-.92.59-2.29.88-4.1.88s-3.18-.32-4.13-.96c-.95-.64-1.48-1.6-1.61-2.89h3.2c.1.52.36.9.76,1.14.41.24,1,.37,1.78.37.73,0,1.29-.09,1.69-.27.4-.18.59-.44.59-.78,0-.25-.11-.45-.33-.59-.22-.14-.6-.25-1.13-.34l-1.93-.29c-1.49-.22-2.58-.61-3.27-1.17-.69-.56-1.04-1.32-1.04-2.3,0-1.05.48-1.86,1.43-2.45.95-.59,2.27-.88,3.96-.88,1.56,0,2.77.27,3.63.81.86.54,1.38,1.35,1.58,2.44l-3.06.3Z"/>
          <polygon class="cls-1" points="768.22 363.27 768.22 355.02 764.17 355.02 764.17 352.4 775.47 352.4 775.47 355.02 771.42 355.02 771.42 363.27 768.22 363.27"/>
          <path class="cls-1" d="m788.12,354.75c-.53-.86-1.27-1.51-2.24-1.96-.96-.45-2.1-.67-3.41-.67s-2.53.23-3.51.7c-.98.47-1.73,1.13-2.24,1.99-.51.86-.77,1.87-.77,3.02s.26,2.23.79,3.08c.53.86,1.27,1.51,2.24,1.96.96.45,2.1.67,3.41.67s2.53-.23,3.51-.7c.98-.47,1.73-1.13,2.24-1.99.51-.86.77-1.87.77-3.02s-.26-2.23-.79-3.08Zm-3.36,5.4c-.55.55-1.33.82-2.34.82s-1.78-.27-2.33-.82c-.55-.55-.82-1.32-.82-2.31s.28-1.77.83-2.31c.55-.55,1.33-.82,2.34-.82s1.78.27,2.33.82c.55.55.82,1.32.82,2.31s-.28,1.77-.83,2.31Z"/>
          <polygon class="cls-1" points="799.33 363.27 793.82 356.66 793.82 363.27 790.77 363.27 790.77 352.4 793.6 352.4 799.11 359.01 799.11 352.4 802.16 352.4 802.16 363.27 799.33 363.27"/>
          <polygon class="cls-1" points="804.66 363.27 804.66 352.4 814.13 352.4 814.13 354.85 807.79 354.85 807.79 356.51 813.81 356.51 813.81 358.96 807.79 358.96 807.79 360.82 814.49 360.82 814.19 363.27 804.66 363.27"/>
        </g>
      </g>
    </g>
  </g>
</svg>